<?xml version="1.0" encoding="UTF-8"?>
<svg id="Camada_2" data-name="Camada 2" xmlns="http://www.w3.org/2000/svg" viewBox="0 0 511.51 511.51">
  <defs>
    <style>
      .cls-1 {
        fill: #f5f0eb;
      }

      .cls-2 {
        fill-rule: evenodd;
      }
    </style>
  </defs>
  <g id="Camada_1-2" data-name="Camada 1">
    <rect class="cls-1" width="511.51" height="511.51"/>
    <g>
      <path class="cls-2" d="M464.5,207.1c-8.47-11.06-16.49-18.44-24.01-22.16-7.52-3.71-16.17-5.57-25.91-5.57-24.51,0-42.63,10.69-54.32,32.03-11.69,21.34-17.53,45.71-17.53,73.08,0,16.49,3.71,29.04,11.14,37.6,7.43,8.52,18.3,12.78,32.57,12.78,11.05,0,21.47-2.99,31.31-8.97,9.83-6.07,19.71-13.95,29.63-23.65h0l-6.52,34.89c-18.94,16.44-38.73,24.65-59.35,24.65s-36.42-6.98-49.29-20.89c-12.73-14-19.12-34.11-19.12-60.35,0-34.75,8.88-65.24,26.68-91.47,17.9-26.23,43.36-39.32,76.38-39.32,24.01,0,42.27,7.79,54.86,23.38l-6.52,33.98Z"/>
      <path d="M183.7,342.86c-4.21-4.1-7.74-9.03-10.61-14.79-2.57-5.16-4.58-11.03-6.08-17.53h-49.36v-160.8h-53.29v212.02h125.29s32.87,0,32.87,0c-2.87-.58-5.71-1.27-8.5-2.09-11.22-3.28-21.72-8.6-30.31-16.82Z"/>
      <path class="cls-2" d="M165.27,149.74h52.17v124.24c0,12.58,2.68,21.41,8.05,26.5,5.41,4.95,13.23,7.45,23.4,7.45s17.53-2.54,22.99-7.59c5.5-5.09,8.28-13.88,8.28-26.36v-124.24h52.17v126.18c0,30.43-7.82,52.4-23.45,65.77-15.54,13.37-35.75,20.07-60.69,20.07-27.01,0-47.59-6.47-61.79-19.38-14.11-13.04-21.14-35.62-21.14-67.71v-124.93Z"/>
    </g>
  </g>
</svg>