<?xml version="1.0" encoding="UTF-8"?>
<svg id="Camada_2" data-name="Camada 2" xmlns="http://www.w3.org/2000/svg" viewBox="0 0 264.79 82.59">
  <defs>
    <style>
      text, path, polygon { fill: #b6ff00; }
      .cls-1 {
        letter-spacing: -.01em;
      }

      .cls-2 {
        font-size: 21.26px;
      }

      .cls-2, .cls-3, .cls-4 {
        font-family: Calibri, Calibri;
      }

      .cls-3 {
        letter-spacing: 0em;
      }

      .cls-5 {
        letter-spacing: -.08em;
      }

      .cls-6 {
        font-family: Calibri-Light, Calibri;
        font-weight: 300;
      }

      .cls-7 {
        fill-rule: evenodd;
      }

      .cls-8 {
        font-size: 18.75px;
      }
    </style>
  </defs>
  <g id="Camada_1-2" data-name="Camada 1">
    <text transform="translate(182.97 55.78)"><tspan class="cls-2"><tspan x="0" y="0">CR</tspan><tspan class="cls-1" x="22.88" y="0">E</tspan><tspan class="cls-5" x="33.03" y="0">A</tspan><tspan x="43.66" y="0">TIVE</tspan></tspan><tspan class="cls-8"><tspan class="cls-6" x="0" y="20.95">&amp;</tspan><tspan class="cls-3" x="12.56" y="20.95">C</tspan><tspan class="cls-4" x="22.39" y="20.95">O</tspan></tspan></text>
    <g>
      <path class="cls-7" d="M153.57,22.01c-3.25-4.24-6.33-7.08-9.22-8.5-2.89-1.43-6.21-2.14-9.95-2.14-9.41,0-16.36,4.1-20.85,12.29-4.49,8.19-6.73,17.54-6.73,28.05,0,6.33,1.43,11.15,4.28,14.43,2.85,3.27,7.03,4.9,12.5,4.9,4.24,0,8.24-1.15,12.01-3.44,3.77-2.33,7.56-5.36,11.37-9.08h0l-2.5,13.39c-7.27,6.31-14.87,9.46-22.78,9.46s-13.98-2.68-18.92-8.02c-4.89-5.37-7.34-13.09-7.34-23.16,0-13.34,3.41-25.04,10.24-35.11,6.87-10.07,16.64-15.09,29.32-15.09,9.22,0,16.22,2.99,21.06,8.97l-2.5,13.04Z"/>
      <path d="M45.8,74.12c-1.61-1.58-2.97-3.47-4.07-5.67-.99-1.98-1.76-4.23-2.33-6.73h-18.94V0H0v81.37h48.08s12.61,0,12.61,0c-1.1-.22-2.19-.49-3.26-.8-4.31-1.26-8.34-3.3-11.63-6.45Z"/>
      <path class="cls-7" d="M38.73,0h20.02v47.68c0,4.83,1.03,8.22,3.09,10.17,2.08,1.9,5.08,2.86,8.98,2.86s6.73-.98,8.82-2.91c2.11-1.95,3.18-5.33,3.18-10.12V0h20.02v48.43c0,11.68-3,20.11-9,25.24-5.96,5.13-13.72,7.7-23.29,7.7-10.37,0-18.27-2.48-23.72-7.44-5.41-5.01-8.11-13.67-8.11-25.99V0Z"/>
    </g>
    <polygon class="cls-7" points="183.16 15.15 170.59 81.48 168.26 81.06 180.83 14.74 183.16 15.15"/>
  </g>
</svg>