<?xml version="1.0" encoding="UTF-8"?>
<svg id="Camada_2" data-name="Camada 2" xmlns="http://www.w3.org/2000/svg" viewBox="0 0 339.93 101.8">
  <defs>
    <style>
      .cls-1 {
        letter-spacing: -.08em;
      }

      .cls-2 {
        letter-spacing: -.01em;
      }

      .cls-3 {
        font-size: 26.2px;
      }

      .cls-3, .cls-4, .cls-5 {
        font-family: Calibri, Calibri;
      }

      .cls-6 {
        font-size: 23.11px;
      }

      .cls-7 {
        font-family: Calibri-Light, Calibri;
        font-weight: 300;
      }

      .cls-4 {
        letter-spacing: 0em;
      }

      .cls-8 {
        fill-rule: evenodd;
      }

      .cls-5 {
        letter-spacing: 0em;
      }
    </style>
  </defs>
  <g id="Camada_1-2" data-name="Camada 1">
    <text transform="translate(239.09 68.75)"><tspan class="cls-3"><tspan x="0" y="0">CR</tspan><tspan class="cls-2" x="28.2" y="0">E</tspan><tspan class="cls-1" x="40.71" y="0">A</tspan><tspan x="53.82" y="0">TIVE</tspan></tspan><tspan class="cls-6"><tspan class="cls-7" x="0" y="25.83">&amp;</tspan><tspan class="cls-5" x="15.48" y="25.83">C</tspan><tspan class="cls-4" x="27.6" y="25.83">O</tspan></tspan></text>
    <g>
      <path class="cls-8" d="M189.29,27.13c-4.01-5.23-7.8-8.72-11.36-10.48-3.56-1.76-7.65-2.64-12.26-2.64-11.59,0-20.17,5.06-25.7,15.15-5.53,10.09-8.29,21.63-8.29,34.57,0,7.8,1.76,13.74,5.27,17.79,3.51,4.03,8.66,6.04,15.41,6.04,5.23,0,10.16-1.41,14.81-4.24,4.65-2.87,9.32-6.6,14.02-11.19h0l-3.09,16.5c-8.96,7.78-18.32,11.66-28.08,11.66s-17.23-3.3-23.32-9.88c-6.02-6.62-9.04-16.14-9.04-28.55,0-16.44,4.2-30.86,12.62-43.27C138.75,6.19,150.8,0,166.42,0c11.36,0,20,3.69,25.95,11.06l-3.09,16.07Z"/>
      <path d="M56.45,91.36c-1.99-1.94-3.66-4.27-5.02-6.99-1.22-2.44-2.17-5.22-2.88-8.29h-23.35V0H0v100.3h59.27s15.55,0,15.55,0c-1.36-.27-2.7-.6-4.02-.99-5.31-1.55-10.28-4.07-14.34-7.96Z"/>
      <path class="cls-8" d="M47.74,0h24.68v58.77c0,5.95,1.27,10.13,3.81,12.54,2.56,2.34,6.26,3.52,11.07,3.52s8.29-1.2,10.88-3.59c2.6-2.41,3.92-6.56,3.92-12.47V0h24.68v59.69c0,14.4-3.7,24.79-11.09,31.11-7.35,6.32-16.91,9.5-28.71,9.5-12.78,0-22.51-3.06-29.23-9.17-6.67-6.17-10-16.85-10-32.03V0Z"/>
    </g>
    <polygon class="cls-8" points="230.69 18.68 215.48 100.48 213.54 100.14 228.76 18.34 230.69 18.68"/>
  </g>
</svg>